<svg width="18" height="16" viewBox="0 0 18 16" fill="none" xmlns="http://www.w3.org/2000/svg">
<path d="M2.23968 13.8667V15.2C2.23968 15.4267 2.16362 15.6166 2.0115 15.7699C1.85921 15.9233 1.67056 16 1.44556 16H0.794118C0.569118 16 0.380559 15.9233 0.228441 15.7699C0.0761472 15.6166 0 15.4267 0 15.2V7.01547L2.16238 0.8C2.24126 0.5552 2.38588 0.360711 2.59624 0.216533C2.80659 0.0721776 3.04076 0 3.29876 0H14.742C14.9898 0 15.2148 0.0733333 15.417 0.22C15.6191 0.366667 15.7593 0.56 15.8376 0.8L18 7.01547V15.2C18 15.4267 17.9239 15.6166 17.7716 15.7699C17.6194 15.9233 17.4309 16 17.2059 16H16.5544C16.3294 16 16.1408 15.9233 15.9885 15.7699C15.8364 15.6166 15.7603 15.4267 15.7603 15.2V13.8667H2.23968ZM2.23174 5.41547H15.7683L14.4326 1.6H3.56744L2.23174 5.41547ZM4.19691 11.036C4.58215 11.036 4.90888 10.9001 5.17712 10.6283C5.44518 10.3566 5.57921 10.0268 5.57921 9.63867C5.57921 9.25058 5.44438 8.92142 5.17474 8.6512C4.90491 8.38116 4.57738 8.24613 4.19215 8.24613C3.80691 8.24613 3.48026 8.38196 3.21221 8.6536C2.94397 8.92542 2.80985 9.25538 2.80985 9.64347C2.80985 10.0316 2.94476 10.3606 3.21459 10.6307C3.48424 10.9009 3.81168 11.036 4.19691 11.036ZM13.8079 11.036C14.1931 11.036 14.5197 10.9001 14.7878 10.6283C15.056 10.3566 15.1901 10.0268 15.1901 9.63867C15.1901 9.25058 15.0552 8.92142 14.7854 8.6512C14.5158 8.38116 14.1883 8.24613 13.8031 8.24613C13.4179 8.24613 13.0911 8.38196 12.8229 8.6536C12.5548 8.92542 12.4208 9.25538 12.4208 9.64347C12.4208 10.0316 12.5556 10.3606 12.8253 10.6307C13.0951 10.9009 13.4226 11.036 13.8079 11.036ZM1.58824 12.2667H16.4118V7.01547H1.58824V12.2667Z" fill="black"/>
</svg>
