<svg width="18" height="16" viewBox="0 0 18 16" fill="none" xmlns="http://www.w3.org/2000/svg">
<path d="M7.78571 16C6.77381 16 5.82599 15.8133 4.94226 15.44C4.05853 15.0667 3.28611 14.5533 2.625 13.9C1.96389 13.2467 1.44444 12.4833 1.06667 11.61C0.688889 10.7367 0.5 9.8 0.5 8.8C0.5 7.8 0.688889 6.86333 1.06667 5.99C1.44444 5.11667 1.96389 4.35333 2.625 3.7C3.28611 3.04667 4.05853 2.53333 4.94226 2.16C5.82599 1.78667 6.77381 1.6 7.78571 1.6C8.06905 1.6 8.34226 1.61667 8.60536 1.65C8.86845 1.68333 9.13492 1.73333 9.40476 1.8V3.44C9.13492 3.36 8.86845 3.3 8.60536 3.26C8.34226 3.22 8.06905 3.2 7.78571 3.2C6.19365 3.2 4.85119 3.74 3.75833 4.82C2.66548 5.9 2.11905 7.22667 2.11905 8.8C2.11905 10.3733 2.66548 11.7 3.75833 12.78C4.85119 13.86 6.19365 14.4 7.78571 14.4C9.37778 14.4 10.7202 13.86 11.8131 12.78C12.906 11.7 13.4524 10.3733 13.4524 8.8C13.4524 8.65333 13.4456 8.52 13.4321 8.4C13.4187 8.28 13.3984 8.14667 13.3714 8H15.031C15.0579 8.14667 15.0714 8.28 15.0714 8.4V8.8C15.0714 9.8 14.8825 10.7367 14.5048 11.61C14.127 12.4833 13.6075 13.2467 12.9464 13.9C12.2853 14.5533 11.5129 15.0667 10.6292 15.44C9.74544 15.8133 8.79762 16 7.78571 16ZM10.0524 12.16L6.97619 9.12V4.8H8.59524V8.48L11.1857 11.04L10.0524 12.16ZM13.4524 6.4V4H11.0238V2.4H13.4524V0H15.0714V2.4H17.5V4H15.0714V6.4H13.4524Z" fill="black"/>
</svg>
