<svg width="16" height="16" viewBox="0 0 16 16" fill="none" xmlns="http://www.w3.org/2000/svg">
<path d="M14.8499 16L13.5385 14.7081H12.6103V13.7938L9.50315 10.7329H7.76797C7.17612 10.7329 6.71879 10.4845 6.39596 9.98758C6.07314 9.49068 6.03279 8.9706 6.27491 8.42733L6.55738 7.83106L0 1.37143L1.15006 0.238509L16 14.8671L14.8499 16ZM14.2245 10.8522L12.0858 8.74534H12.6103C13.0542 8.74534 13.4342 8.90104 13.7503 9.21242C14.0664 9.52381 14.2245 9.89814 14.2245 10.3354V10.8522ZM10.855 7.53292L6.83985 3.57764H10.1488C10.7541 3.57764 11.2148 3.81946 11.5309 4.30311C11.847 4.78675 11.884 5.30021 11.6419 5.84348L10.855 7.53292ZM5.34678 15.5031C4.23035 15.5031 3.27869 15.1155 2.4918 14.3404C1.70492 13.5652 1.31148 12.6277 1.31148 11.528C1.31148 10.4282 1.70492 9.49068 2.4918 8.71553C3.27869 7.94037 4.23035 7.55279 5.34678 7.55279V9.14286C4.67423 9.14286 4.10256 9.37474 3.63178 9.83851C3.16099 10.3023 2.9256 10.8654 2.9256 11.528C2.9256 12.1905 3.16099 12.7536 3.63178 13.2174C4.10256 13.6812 4.67423 13.913 5.34678 13.913C6.01934 13.913 6.591 13.6812 7.06179 13.2174C7.53258 12.7536 7.76797 12.1905 7.76797 11.528H9.38209C9.38209 12.6277 8.98865 13.5652 8.20177 14.3404C7.41488 15.1155 6.46322 15.5031 5.34678 15.5031ZM11.8033 3.18012C11.3594 3.18012 10.9794 3.02443 10.6633 2.71304C10.3472 2.40166 10.1892 2.02733 10.1892 1.59006C10.1892 1.1528 10.3472 0.778468 10.6633 0.467081C10.9794 0.155694 11.3594 0 11.8033 0C12.2472 0 12.6272 0.155694 12.9433 0.467081C13.2594 0.778468 13.4174 1.1528 13.4174 1.59006C13.4174 2.02733 13.2594 2.40166 12.9433 2.71304C12.6272 3.02443 12.2472 3.18012 11.8033 3.18012Z" fill="black"/>
</svg>
