<svg width="8" height="16" viewBox="0 0 8 16" fill="none" xmlns="http://www.w3.org/2000/svg">
<path d="M3.16578 16V14.0889C2.40998 13.9111 1.75758 13.5704 1.20856 13.0667C0.659537 12.563 0.256684 11.8519 0 10.9333L1.58289 10.2667C1.79679 10.9778 2.11408 11.5185 2.53476 11.8889C2.95544 12.2593 3.50802 12.4444 4.19251 12.4444C4.77718 12.4444 5.27273 12.3074 5.67914 12.0333C6.08556 11.7593 6.28877 11.3333 6.28877 10.7556C6.28877 10.237 6.13191 9.82593 5.81818 9.52222C5.50446 9.21852 4.77718 8.87407 3.63636 8.48889C2.40998 8.08889 1.56863 7.61111 1.1123 7.05556C0.655971 6.5 0.427808 5.82222 0.427808 5.02222C0.427808 4.05926 0.727273 3.31111 1.3262 2.77778C1.92513 2.24444 2.53832 1.94074 3.16578 1.86667V0H4.87701V1.86667C5.59002 1.98519 6.17825 2.25556 6.64171 2.67778C7.10517 3.1 7.44385 3.61481 7.65775 4.22222L6.07487 4.93333C5.90374 4.45926 5.66132 4.1037 5.34759 3.86667C5.03387 3.62963 4.60606 3.51111 4.06417 3.51111C3.43672 3.51111 2.959 3.65556 2.63102 3.94444C2.30303 4.23333 2.13904 4.59259 2.13904 5.02222C2.13904 5.51111 2.35294 5.8963 2.78075 6.17778C3.20856 6.45926 3.95009 6.75556 5.00535 7.06667C5.98931 7.36296 6.7344 7.83333 7.24064 8.47778C7.74688 9.12222 8 9.86667 8 10.7111C8 11.763 7.70053 12.563 7.1016 13.1111C6.50267 13.6593 5.76114 14 4.87701 14.1333V16H3.16578Z" fill="black"/>
</svg>
