<svg width="16" height="16" viewBox="0 0 16 16" fill="none" xmlns="http://www.w3.org/2000/svg">
<path d="M8 10.6666C8.83333 10.6666 9.54166 10.375 10.125 9.79163C10.7083 9.20829 11 8.49996 11 7.66663C11 6.83329 10.7083 6.12496 10.125 5.54163C9.54166 4.95829 8.83333 4.66663 8 4.66663C7.16666 4.66663 6.45833 4.95829 5.875 5.54163C5.29166 6.12496 5 6.83329 5 7.66663C5 8.49996 5.29166 9.20829 5.875 9.79163C6.45833 10.375 7.16666 10.6666 8 10.6666ZM8 9.46663C7.5 9.46663 7.075 9.29163 6.725 8.94163C6.375 8.59163 6.2 8.16663 6.2 7.66663C6.2 7.16663 6.375 6.74163 6.725 6.39163C7.075 6.04163 7.5 5.86663 8 5.86663C8.5 5.86663 8.925 6.04163 9.275 6.39163C9.625 6.74163 9.8 7.16663 9.8 7.66663C9.8 8.16663 9.625 8.59163 9.275 8.94163C8.925 9.29163 8.5 9.46663 8 9.46663ZM8 12.6666C6.37778 12.6666 4.9 12.2138 3.56666 11.3083C2.23333 10.4027 1.26666 9.18885 0.666664 7.66663C1.26666 6.1444 2.23333 4.93051 3.56666 4.02496C4.9 3.1194 6.37778 2.66663 8 2.66663C9.62222 2.66663 11.1 3.1194 12.4333 4.02496C13.7667 4.93051 14.7333 6.1444 15.3333 7.66663C14.7333 9.18885 13.7667 10.4027 12.4333 11.3083C11.1 12.2138 9.62222 12.6666 8 12.6666ZM8 11.3333C9.25555 11.3333 10.4083 11.0027 11.4583 10.3416C12.5083 9.68052 13.3111 8.78885 13.8667 7.66663C13.3111 6.5444 12.5083 5.65274 11.4583 4.99163C10.4083 4.33051 9.25555 3.99996 8 3.99996C6.74444 3.99996 5.59166 4.33051 4.54166 4.99163C3.49166 5.65274 2.68889 6.5444 2.13333 7.66663C2.68889 8.78885 3.49166 9.68052 4.54166 10.3416C5.59166 11.0027 6.74444 11.3333 8 11.3333Z" fill="black"/>
</svg>
