<svg width="16" height="11" viewBox="0 0 16 11" fill="none" xmlns="http://www.w3.org/2000/svg">
<path d="M7.99999 8.66663C8.83332 8.66663 9.54166 8.37496 10.125 7.79163C10.7083 7.20829 11 6.49996 11 5.66663C11 4.83329 10.7083 4.12496 10.125 3.54163C9.54166 2.95829 8.83332 2.66663 7.99999 2.66663C7.16666 2.66663 6.45832 2.95829 5.87499 3.54163C5.29166 4.12496 4.99999 4.83329 4.99999 5.66663C4.99999 6.49996 5.29166 7.20829 5.87499 7.79163C6.45832 8.37496 7.16666 8.66663 7.99999 8.66663ZM7.99999 7.46663C7.49999 7.46663 7.07499 7.29163 6.72499 6.94163C6.37499 6.59163 6.19999 6.16663 6.19999 5.66663C6.19999 5.16663 6.37499 4.74163 6.72499 4.39163C7.07499 4.04163 7.49999 3.86663 7.99999 3.86663C8.49999 3.86663 8.92499 4.04163 9.27499 4.39163C9.62499 4.74163 9.79999 5.16663 9.79999 5.66663C9.79999 6.16663 9.62499 6.59163 9.27499 6.94163C8.92499 7.29163 8.49999 7.46663 7.99999 7.46663ZM7.99999 10.6666C6.37777 10.6666 4.89999 10.2138 3.56666 9.30829C2.23332 8.40274 1.26666 7.18885 0.666656 5.66663C1.26666 4.1444 2.23332 2.93051 3.56666 2.02496C4.89999 1.1194 6.37777 0.666626 7.99999 0.666626C9.62221 0.666626 11.1 1.1194 12.4333 2.02496C13.7667 2.93051 14.7333 4.1444 15.3333 5.66663C14.7333 7.18885 13.7667 8.40274 12.4333 9.30829C11.1 10.2138 9.62221 10.6666 7.99999 10.6666ZM7.99999 9.33329C9.25555 9.33329 10.4083 9.00274 11.4583 8.34163C12.5083 7.68052 13.3111 6.78885 13.8667 5.66663C13.3111 4.5444 12.5083 3.65274 11.4583 2.99163C10.4083 2.33051 9.25555 1.99996 7.99999 1.99996C6.74443 1.99996 5.59166 2.33051 4.54166 2.99163C3.49166 3.65274 2.68888 4.5444 2.13332 5.66663C2.68888 6.78885 3.49166 7.68052 4.54166 8.34163C5.59166 9.00274 6.74443 9.33329 7.99999 9.33329Z" fill="black"/>
</svg>
