<svg width="137" height="138" viewBox="0 0 137 138" fill="none" xmlns="http://www.w3.org/2000/svg">
<g clip-path="url(#clip0_351_131)">
<path d="M68.2768 68.8482C70.5445 69.71 72.7926 69.6403 75.0212 68.6391C77.2498 67.6379 78.7949 66.0035 79.6567 63.7358C80.5185 61.4681 80.4488 59.2199 79.4476 56.9914C78.4464 54.7628 76.812 53.2176 74.5443 52.3558C72.2766 51.4941 70.0284 51.5638 67.7999 52.5649C65.5713 53.5661 64.0261 55.2006 63.1643 57.4683C62.3026 59.736 62.3723 61.9841 63.3735 64.2127C64.3746 66.4413 66.0091 67.9864 68.2768 68.8482ZM56.7602 99.153C68.0687 94.6425 76.9449 90.0138 83.3887 85.2668C89.8326 80.5199 93.9816 75.7069 95.8357 70.8279C98.6822 63.3376 98.625 56.297 95.664 49.7061C92.7031 43.1153 87.7523 38.501 80.8118 35.8635C73.8712 33.2259 67.1055 33.3876 60.5147 36.3485C53.9238 39.3095 49.2051 44.5351 46.3586 52.0254C44.5045 56.9044 44.4098 63.2581 46.0747 71.0866C47.7396 78.9151 51.3015 88.2705 56.7602 99.153ZM52.608 110.079C45.1221 96.4603 40.1818 84.5756 37.7872 74.4251C35.3925 64.2746 35.5009 55.7635 38.1124 48.8916C42.0296 38.5839 48.4659 31.6321 57.4215 28.0362C66.377 24.4404 75.2183 24.3007 83.9455 27.6173C92.6728 30.9338 99.1899 36.9101 103.497 45.5461C107.804 54.1821 107.999 63.6539 104.082 73.9616C101.47 80.8335 95.8989 87.2685 87.3674 93.2668C78.8358 99.2651 67.2494 104.869 52.608 110.079Z" fill="#00B7FF"/>
</g>
<defs>
<clipPath id="clip0_351_131">
<rect width="105.859" height="105.859" fill="white" transform="translate(37.6022 0.568604) rotate(20.808)"/>
</clipPath>
</defs>
</svg>
